<?xml version="1.0" standalone="no"?><!DOCTYPE svg PUBLIC "-//W3C//DTD SVG 1.1//EN" "http://www.w3.org/Graphics/SVG/1.1/DTD/svg11.dtd"><svg t="1710422416570" class="icon" viewBox="0 0 1024 1024" version="1.1" xmlns="http://www.w3.org/2000/svg" p-id="2604" width="200" height="200" xmlns:xlink="http://www.w3.org/1999/xlink"><path d="M59.947886 950.184229H44.217295a9.752381 9.752381 0 1 0 0 19.504761h15.730591a9.752381 9.752381 0 1 0 0-19.504761zM979.782705 950.184229h-25.151391a9.752381 9.752381 0 1 0 0 19.504761h25.161143a9.752381 9.752381 0 1 0 0-19.504761zM916.333714 950.164724H786.822095c37.156571-10.532571 74.118095-31.402667 107.373715-64.365714 89.234286-89.916952 96.938667-227.328 17.066666-307.2-78.019048-78.019048-168.423619-42.032762-196.900571-70.314667a50.088229 50.088229 0 0 1-13.750857-25.84381c-4.486095-23.210667-13.945905-45.056-30.622477-61.732571l-7.411809-7.509333a85.64541 85.64541 0 0 0-121.124572 0l-15.89638 15.896381 65.438476 63.292952h0.292571c24.088381 0 46.713905 9.362286 63.683048 26.428952 35.206095 35.108571 35.206095 92.452571 0.097524 127.756191-35.303619 35.303619-92.550095 35.693714-127.951239 0.097524a88.824686 88.824686 0 0 1-26.428952-63.975619l-63.292952-65.438477-15.798857 15.798857c-33.450667 33.450667-33.450667 87.771429 0 121.222096l7.411809 7.411809c16.676571 16.676571 38.619429 26.136381 61.732572 30.622476 9.45981 1.852952 18.529524 6.436571 25.843809 13.750858 14.726095 14.628571 15.11619 58.319238 15.116191 58.319238v1.755428c0 2.730667 0.097524 5.461333 0.195047 8.289524 3.510857 88.941714 61.927619 153.6 137.313524 175.737905h-568.56381c-5.36381 0-9.752381 4.388571-9.752381 9.752381 0 5.461333 4.388571 9.752381 9.752381 9.752381h815.689143c5.36381 0 9.752381-4.291048 9.752381-9.752381 0-5.36381-4.388571-9.752381-9.752381-9.752381z m-187.14819-122.782476l-30.134857-30.134858a10.532571 10.532571 0 0 1 0-15.018666l91.477333-91.477334a10.532571 10.532571 0 0 1 15.018667 0l30.134857 30.134858c4.193524 4.193524 4.193524 10.825143 0 15.018666l-91.477334 91.477334c-4.096 4.193524-10.825143 4.193524-15.018666 0z" p-id="2605" fill="#1296db"></path><path d="M67.486476 167.633676c-3.803429 3.803429-3.803429 10.044952 0 13.848381 1.950476 1.852952 4.388571 2.82819 6.924191 2.828191 2.438095 0 4.973714-0.975238 6.92419-2.828191l14.238476-14.238476 19.894857 25.35619-11.507809 11.50781a9.713371 9.713371 0 0 0 0 13.750857 9.518324 9.518324 0 0 0 13.750857 0l9.849905-9.849905 20.675047 26.331429 21.845334-21.74781 350.598095 362.691048c-2.438095 20.577524 4.388571 41.837714 20.187429 57.636571 27.794286 27.794286 72.655238 27.599238 100.352-0.097523 27.599238-27.696762 27.794286-72.46019 0-100.254477a70.470705 70.470705 0 0 0-57.636572-20.284952l-362.691047-350.500571 21.747809-21.845334-26.233905-20.675047 9.849905-9.849905c3.803429-3.803429 3.803429-10.044952 0-13.848381s-10.044952-3.803429-13.848381 0l-11.507809 11.507809-25.356191-19.894857 14.238476-14.238476a9.713371 9.713371 0 1 0-13.750857-13.750857l-15.896381 15.896381-26.331428-20.772571-71.094857 71.19238 20.675047 26.233905-15.896381 15.896381z m419.566934 323.847314l12.804876-12.804876a9.752381 9.752381 0 1 1 13.789866 13.789867l-12.804876 12.804876a9.723124 9.723124 0 0 1-13.789866 0 9.752381 9.752381 0 0 1 0-13.789867z m-50.634362-50.595352l12.814628-12.824381a9.752381 9.752381 0 1 1 13.789867 13.789867l-12.804876 12.824381a9.723124 9.723124 0 0 1-13.799619 0 9.752381 9.752381 0 0 1 0-13.789867z m-50.634362-50.614857l12.824381-12.804876a9.752381 9.752381 0 1 1 13.789866 13.789866l-12.824381 12.804877a9.723124 9.723124 0 0 1-13.789866 0 9.752381 9.752381 0 0 1 0-13.789867z m-50.62461-50.614857l12.814629-12.804876a9.752381 9.752381 0 1 1 13.789866 13.789866l-12.814628 12.814629a9.723124 9.723124 0 0 1-13.789867 0 9.752381 9.752381 0 0 1 0-13.789867z m-50.634362-50.595353l12.814629-12.804876a9.752381 9.752381 0 1 1 13.789867 13.789867l-12.814629 12.804876a9.723124 9.723124 0 0 1-13.789867 0 9.752381 9.752381 0 0 1 0-13.789867z m-50.624609-50.614857l12.804876-12.804876a9.752381 9.752381 0 1 1 13.789867 13.789867l-12.804877 12.814628a9.723124 9.723124 0 0 1-13.789866 0 9.752381 9.752381 0 0 1 0-13.789866zM164.62019 759.310629v-172.714667l141.604572-27.306667v116.443429a48.049981 48.049981 0 0 0-29.549714-10.044953 49.11299 49.11299 0 0 0 0 98.206477c27.111619 0 49.054476-22.040381 49.054476-49.054477 0-0.487619 0-0.975238-0.097524-1.365333 0.097524-0.195048 0.097524-0.487619 0.097524-0.78019v-165.205334a9.684114 9.684114 0 0 0-11.605334-9.557333l-161.109333 31.012571c-4.583619 0.877714-7.899429 4.87619-7.899428 9.557334v141.799619a48.049981 48.049981 0 0 0-29.549715-10.044953c-27.111619 0-49.152 21.942857-49.152 49.054477a49.11299 49.11299 0 0 0 98.206476 0zM571.196952 278.810819c23.990857 0 43.398095-19.407238 43.398096-43.398095v-132.827429c12.385524 8.387048 32.377905 18.432 64.365714 27.111619a9.635352 9.635352 0 0 0 11.897905-6.826666c1.462857-5.168762-1.657905-10.532571-6.826667-11.995429-57.051429-15.506286-70.802286-35.011048-70.802286-35.011048-2.340571-3.803429-6.826667-5.558857-11.02019-4.388571-4.193524 1.26781-7.119238 5.071238-7.119238 9.45981v118.29638a42.617905 42.617905 0 0 0-23.893334-7.216761c-23.893333 0-43.398095 19.504762-43.398095 43.398095 0 23.990857 19.504762 43.398095 43.398095 43.398095z" p-id="2606" fill="#1296db"></path></svg>